<mxfile host="Electron" modified="2023-10-31T02:25:29.722Z" agent="Mozilla/5.0 (Windows NT 10.0; Win64; x64) AppleWebKit/537.36 (KHTML, like Gecko) draw.io/22.0.3 Chrome/114.0.5735.289 Electron/25.8.4 Safari/537.36" etag="me2QpWaFYcgxg7dc5h6S" version="22.0.3" type="device">
  <diagram name="Page-1" id="97916047-d0de-89f5-080d-49f4d83e522f">
    <mxGraphModel dx="1897" dy="808" grid="1" gridSize="10" guides="1" tooltips="1" connect="1" arrows="1" fold="1" page="1" pageScale="1.5" pageWidth="1169" pageHeight="827" background="none" math="0" shadow="0">
      <root>
        <mxCell id="0" />
        <mxCell id="1" parent="0" />
        <mxCell id="NuH8il2l0xOpfyQL6ajn-73" value="Admin" style="rounded=1;fillColor=#10739E;strokeColor=none;shadow=1;gradientColor=none;fontStyle=1;fontColor=#FFFFFF;fontSize=14;" vertex="1" parent="1">
          <mxGeometry x="682" y="215.5" width="200" height="60" as="geometry" />
        </mxCell>
        <mxCell id="NuH8il2l0xOpfyQL6ajn-74" value="Quản lý nhân viên" style="rounded=1;fillColor=#10739E;strokeColor=none;shadow=1;gradientColor=none;fontStyle=1;fontColor=#FFFFFF;fontSize=14;" vertex="1" parent="1">
          <mxGeometry x="672" y="355.5" width="220" height="60" as="geometry" />
        </mxCell>
        <mxCell id="NuH8il2l0xOpfyQL6ajn-75" value="Xem thông tin nhân viên" style="rounded=1;fillColor=#10739E;strokeColor=none;shadow=1;gradientColor=none;fontStyle=1;fontColor=#FFFFFF;fontSize=14;" vertex="1" parent="1">
          <mxGeometry x="370" y="465.5" width="200" height="60" as="geometry" />
        </mxCell>
        <mxCell id="NuH8il2l0xOpfyQL6ajn-76" value="Cập nhật nhân viên" style="rounded=1;fillColor=#10739E;strokeColor=none;shadow=1;gradientColor=none;fontStyle=1;fontColor=#FFFFFF;fontSize=14;" vertex="1" parent="1">
          <mxGeometry x="580" y="465.5" width="200" height="60" as="geometry" />
        </mxCell>
        <mxCell id="NuH8il2l0xOpfyQL6ajn-77" value="Quản lý loại nhân viên" style="rounded=1;fillColor=#10739E;strokeColor=none;shadow=1;gradientColor=none;fontStyle=1;fontColor=#FFFFFF;fontSize=14;" vertex="1" parent="1">
          <mxGeometry x="900" y="465.5" width="200" height="60" as="geometry" />
        </mxCell>
        <mxCell id="NuH8il2l0xOpfyQL6ajn-78" value="" style="edgeStyle=elbowEdgeStyle;elbow=vertical;strokeWidth=4;endArrow=block;endFill=1;fontStyle=1;strokeColor=#23445D;" edge="1" parent="1" source="NuH8il2l0xOpfyQL6ajn-73" target="NuH8il2l0xOpfyQL6ajn-74">
          <mxGeometry x="22" y="165.5" width="100" height="100" as="geometry">
            <mxPoint x="32" y="275.5" as="sourcePoint" />
            <mxPoint x="132" y="175.5" as="targetPoint" />
          </mxGeometry>
        </mxCell>
        <mxCell id="NuH8il2l0xOpfyQL6ajn-79" value="" style="edgeStyle=elbowEdgeStyle;elbow=vertical;strokeWidth=4;endArrow=block;endFill=1;fontStyle=1;strokeColor=#23445D;" edge="1" parent="1" source="NuH8il2l0xOpfyQL6ajn-74" target="NuH8il2l0xOpfyQL6ajn-76">
          <mxGeometry x="22" y="165.5" width="100" height="100" as="geometry">
            <mxPoint x="32" y="275.5" as="sourcePoint" />
            <mxPoint x="132" y="175.5" as="targetPoint" />
          </mxGeometry>
        </mxCell>
        <mxCell id="NuH8il2l0xOpfyQL6ajn-80" value="" style="edgeStyle=elbowEdgeStyle;elbow=vertical;strokeWidth=4;endArrow=block;endFill=1;fontStyle=1;strokeColor=#23445D;" edge="1" parent="1" source="NuH8il2l0xOpfyQL6ajn-74" target="NuH8il2l0xOpfyQL6ajn-75">
          <mxGeometry x="22" y="165.5" width="100" height="100" as="geometry">
            <mxPoint x="32" y="275.5" as="sourcePoint" />
            <mxPoint x="132" y="175.5" as="targetPoint" />
          </mxGeometry>
        </mxCell>
        <mxCell id="NuH8il2l0xOpfyQL6ajn-81" value="" style="edgeStyle=elbowEdgeStyle;elbow=vertical;strokeWidth=4;endArrow=block;endFill=1;fontStyle=1;strokeColor=#23445D;" edge="1" parent="1" source="NuH8il2l0xOpfyQL6ajn-74" target="NuH8il2l0xOpfyQL6ajn-77">
          <mxGeometry x="22" y="165.5" width="100" height="100" as="geometry">
            <mxPoint x="32" y="275.5" as="sourcePoint" />
            <mxPoint x="132" y="175.5" as="targetPoint" />
          </mxGeometry>
        </mxCell>
        <mxCell id="NuH8il2l0xOpfyQL6ajn-82" value="Thông tin nhân viên" style="rounded=1;fillColor=#10739E;strokeColor=none;shadow=1;gradientColor=none;fontStyle=1;fontColor=#FFFFFF;fontSize=14;" vertex="1" parent="1">
          <mxGeometry x="500" y="560" width="200" height="60" as="geometry" />
        </mxCell>
        <mxCell id="NuH8il2l0xOpfyQL6ajn-83" value="Số lượng tồn kho" style="rounded=1;fillColor=#10739E;strokeColor=none;shadow=1;gradientColor=none;fontStyle=1;fontColor=#FFFFFF;fontSize=14;" vertex="1" parent="1">
          <mxGeometry x="500" y="630" width="200" height="60" as="geometry" />
        </mxCell>
        <mxCell id="NuH8il2l0xOpfyQL6ajn-84" value="Cập nhật loại nhân viên" style="rounded=1;fillColor=#10739E;strokeColor=none;shadow=1;gradientColor=none;fontStyle=1;fontColor=#FFFFFF;fontSize=14;" vertex="1" parent="1">
          <mxGeometry x="900" y="550" width="200" height="60" as="geometry" />
        </mxCell>
        <mxCell id="NuH8il2l0xOpfyQL6ajn-85" value="Xem thông tin/ tra cứu" style="rounded=1;fillColor=#10739E;strokeColor=none;shadow=1;gradientColor=none;fontStyle=1;fontColor=#FFFFFF;fontSize=14;" vertex="1" parent="1">
          <mxGeometry x="900" y="630" width="200" height="60" as="geometry" />
        </mxCell>
        <mxCell id="NuH8il2l0xOpfyQL6ajn-86" value="" style="edgeStyle=elbowEdgeStyle;elbow=vertical;strokeWidth=4;endArrow=block;endFill=1;fontStyle=1;strokeColor=#23445D;exitX=1;exitY=0.5;exitDx=0;exitDy=0;entryX=1;entryY=0.5;entryDx=0;entryDy=0;" edge="1" parent="1" source="NuH8il2l0xOpfyQL6ajn-77" target="NuH8il2l0xOpfyQL6ajn-84">
          <mxGeometry x="22" y="165.5" width="100" height="100" as="geometry">
            <mxPoint x="792" y="426" as="sourcePoint" />
            <mxPoint x="1010" y="476" as="targetPoint" />
            <Array as="points">
              <mxPoint x="1140" y="540" />
            </Array>
          </mxGeometry>
        </mxCell>
        <mxCell id="NuH8il2l0xOpfyQL6ajn-87" value="" style="edgeStyle=elbowEdgeStyle;elbow=vertical;strokeWidth=4;endArrow=block;endFill=1;fontStyle=1;strokeColor=#23445D;exitX=1;exitY=0.5;exitDx=0;exitDy=0;entryX=1;entryY=0.5;entryDx=0;entryDy=0;" edge="1" parent="1" source="NuH8il2l0xOpfyQL6ajn-77" target="NuH8il2l0xOpfyQL6ajn-85">
          <mxGeometry x="22" y="165.5" width="100" height="100" as="geometry">
            <mxPoint x="1110" y="506" as="sourcePoint" />
            <mxPoint x="1110" y="590" as="targetPoint" />
            <Array as="points">
              <mxPoint x="1140" y="580" />
            </Array>
          </mxGeometry>
        </mxCell>
        <mxCell id="NuH8il2l0xOpfyQL6ajn-88" value="&lt;h1&gt;Cập nhật&lt;/h1&gt;&lt;p&gt;Bao gồm các thao tác như, Thêm, Sửa, Xóa thông tin của một đối tượng nào đó.&lt;/p&gt;" style="text;html=1;strokeColor=none;fillColor=none;spacing=5;spacingTop=-20;whiteSpace=wrap;overflow=hidden;rounded=0;" vertex="1" parent="1">
          <mxGeometry x="440" y="275.5" width="190" height="120" as="geometry" />
        </mxCell>
        <mxCell id="NuH8il2l0xOpfyQL6ajn-89" value="" style="edgeStyle=elbowEdgeStyle;elbow=vertical;strokeWidth=4;endArrow=block;endFill=1;fontStyle=1;strokeColor=#23445D;exitX=0.5;exitY=1;exitDx=0;exitDy=0;entryX=0;entryY=0.5;entryDx=0;entryDy=0;" edge="1" parent="1" source="NuH8il2l0xOpfyQL6ajn-75" target="NuH8il2l0xOpfyQL6ajn-82">
          <mxGeometry x="22" y="165.5" width="100" height="100" as="geometry">
            <mxPoint x="792" y="426" as="sourcePoint" />
            <mxPoint x="480" y="476" as="targetPoint" />
            <Array as="points">
              <mxPoint x="480" y="590" />
            </Array>
          </mxGeometry>
        </mxCell>
        <mxCell id="NuH8il2l0xOpfyQL6ajn-90" value="" style="edgeStyle=elbowEdgeStyle;elbow=vertical;strokeWidth=4;endArrow=block;endFill=1;fontStyle=1;strokeColor=#23445D;exitX=0.5;exitY=1;exitDx=0;exitDy=0;entryX=0;entryY=0.5;entryDx=0;entryDy=0;" edge="1" parent="1" source="NuH8il2l0xOpfyQL6ajn-75" target="NuH8il2l0xOpfyQL6ajn-83">
          <mxGeometry x="22" y="165.5" width="100" height="100" as="geometry">
            <mxPoint x="480" y="536" as="sourcePoint" />
            <mxPoint x="510" y="600" as="targetPoint" />
            <Array as="points">
              <mxPoint x="480" y="660" />
            </Array>
          </mxGeometry>
        </mxCell>
        <mxCell id="NuH8il2l0xOpfyQL6ajn-91" value="Tính lương" style="rounded=1;fillColor=#10739E;strokeColor=none;shadow=1;gradientColor=none;fontStyle=1;fontColor=#FFFFFF;fontSize=14;" vertex="1" parent="1">
          <mxGeometry x="1190" y="465.5" width="200" height="60" as="geometry" />
        </mxCell>
        <mxCell id="NuH8il2l0xOpfyQL6ajn-92" value="" style="edgeStyle=elbowEdgeStyle;elbow=vertical;strokeWidth=4;endArrow=block;endFill=1;fontStyle=1;strokeColor=#23445D;exitX=0.5;exitY=1;exitDx=0;exitDy=0;entryX=0.536;entryY=-0.085;entryDx=0;entryDy=0;entryPerimeter=0;" edge="1" parent="1" source="NuH8il2l0xOpfyQL6ajn-74" target="NuH8il2l0xOpfyQL6ajn-91">
          <mxGeometry x="22" y="165.5" width="100" height="100" as="geometry">
            <mxPoint x="792" y="426" as="sourcePoint" />
            <mxPoint x="1010" y="476" as="targetPoint" />
            <Array as="points">
              <mxPoint x="1040" y="440" />
            </Array>
          </mxGeometry>
        </mxCell>
        <mxCell id="NuH8il2l0xOpfyQL6ajn-93" value="Thêm lương" style="rounded=1;fillColor=#10739E;strokeColor=none;shadow=1;gradientColor=none;fontStyle=1;fontColor=#FFFFFF;fontSize=14;" vertex="1" parent="1">
          <mxGeometry x="1190" y="550" width="200" height="60" as="geometry" />
        </mxCell>
        <mxCell id="NuH8il2l0xOpfyQL6ajn-94" value="Trừ lương" style="rounded=1;fillColor=#10739E;strokeColor=none;shadow=1;gradientColor=none;fontStyle=1;fontColor=#FFFFFF;fontSize=14;" vertex="1" parent="1">
          <mxGeometry x="1190" y="630" width="200" height="60" as="geometry" />
        </mxCell>
        <mxCell id="NuH8il2l0xOpfyQL6ajn-95" value="" style="edgeStyle=elbowEdgeStyle;elbow=vertical;strokeWidth=4;endArrow=block;endFill=1;fontStyle=1;strokeColor=#23445D;exitX=1;exitY=0.5;exitDx=0;exitDy=0;entryX=1;entryY=0.5;entryDx=0;entryDy=0;" edge="1" parent="1" source="NuH8il2l0xOpfyQL6ajn-91" target="NuH8il2l0xOpfyQL6ajn-93">
          <mxGeometry x="22" y="165.5" width="100" height="100" as="geometry">
            <mxPoint x="1110" y="505" as="sourcePoint" />
            <mxPoint x="1480" y="550" as="targetPoint" />
            <Array as="points">
              <mxPoint x="1430" y="540" />
            </Array>
          </mxGeometry>
        </mxCell>
        <mxCell id="NuH8il2l0xOpfyQL6ajn-96" value="" style="edgeStyle=elbowEdgeStyle;elbow=vertical;strokeWidth=4;endArrow=block;endFill=1;fontStyle=1;strokeColor=#23445D;exitX=1;exitY=0.5;exitDx=0;exitDy=0;entryX=1;entryY=0.5;entryDx=0;entryDy=0;" edge="1" parent="1" source="NuH8il2l0xOpfyQL6ajn-91" target="NuH8il2l0xOpfyQL6ajn-94">
          <mxGeometry x="22" y="165.5" width="100" height="100" as="geometry">
            <mxPoint x="1400" y="505" as="sourcePoint" />
            <mxPoint x="1400" y="590" as="targetPoint" />
            <Array as="points">
              <mxPoint x="1430" y="580" />
            </Array>
          </mxGeometry>
        </mxCell>
      </root>
    </mxGraphModel>
  </diagram>
</mxfile>
